<svg width="1343" height="877" viewBox="0 0 1343 877" fill="none" xmlns="http://www.w3.org/2000/svg">
<rect width="1343" height="877" fill="#D9D9D9"/>
<path opacity="0.7" d="M302.541 311.4H354.141L472.141 496.6H468.541V311.4H515.741V571H467.741L342.141 374.6H349.741V571H302.541V311.4ZM590.059 311.4H674.059C700.459 311.4 723.593 316.733 743.459 327.4C763.326 337.933 778.793 352.933 789.859 372.4C800.926 391.867 806.459 414.867 806.459 441.4C806.459 467.667 800.926 490.533 789.859 510C778.793 529.333 763.326 544.333 743.459 555C723.593 565.667 700.459 571 674.059 571H590.059V311.4ZM637.259 354.2V528.6H674.059C690.859 528.6 705.326 524.8 717.459 517.2C729.726 509.6 739.126 499.267 745.659 486.2C752.326 473 755.659 458.067 755.659 441.4C755.659 424.467 752.326 409.467 745.659 396.4C739.126 383.333 729.726 373.067 717.459 365.6C705.326 358 690.859 354.2 674.059 354.2H637.259ZM836.269 571L924.669 311.4H983.869L1068.67 571H1019.07L1001.07 515H904.669L886.269 571H836.269ZM916.669 479.4H989.869L953.469 367.8L916.669 479.4Z" fill="#445D69"/>
</svg>
