<svg width="393" height="257" viewBox="0 0 393 257" fill="none" xmlns="http://www.w3.org/2000/svg">
<rect width="393" height="257" fill="#D9D9D9"/>
<rect width="393" height="257" fill="#D9D9D9"/>
<path opacity="0.7" d="M107.83 95.696H120.214L148.534 140.144H147.67V95.696H158.998V158H147.478L117.334 110.864H119.158V158H107.83V95.696ZM176.834 95.696H196.994C203.33 95.696 208.882 96.976 213.65 99.536C218.418 102.064 222.13 105.664 224.786 110.336C227.442 115.008 228.77 120.528 228.77 126.896C228.77 133.2 227.442 138.688 224.786 143.36C222.13 148 218.418 151.6 213.65 154.16C208.882 156.72 203.33 158 196.994 158H176.834V95.696ZM188.162 105.968V147.824H196.994C201.026 147.824 204.498 146.912 207.41 145.088C210.354 143.264 212.61 140.784 214.178 137.648C215.778 134.48 216.578 130.896 216.578 126.896C216.578 122.832 215.778 119.232 214.178 116.096C212.61 112.96 210.354 110.496 207.41 108.704C204.498 106.88 201.026 105.968 196.994 105.968H188.162ZM235.925 158L257.141 95.696H271.349L291.701 158H279.797L275.477 144.56H252.341L247.924 158H235.925ZM255.221 136.016H272.789L264.053 109.232L255.221 136.016Z" fill="#445D69"/>
</svg>
