<svg width="26" height="15" viewBox="0 0 26 15" fill="none" xmlns="http://www.w3.org/2000/svg">
<path d="M0.5723 0.573599C0.938854 0.206324 1.43594 0 1.95425 0C2.47256 0 2.96964 0.206324 3.3362 0.573599L13.0118 10.2711L22.6874 0.573599C23.0561 0.216732 23.5498 0.0192653 24.0623 0.0237289C24.5748 0.0281926 25.0651 0.23423 25.4275 0.597463C25.7899 0.960696 25.9955 1.45206 25.9999 1.96573C26.0044 2.4794 25.8074 2.97428 25.4513 3.34377L14.3938 14.4264C14.0272 14.7937 13.5301 15 13.0118 15C12.4935 15 11.9964 14.7937 11.6299 14.4264L0.5723 3.34377C0.205857 2.97638 0 2.47817 0 1.95868C0 1.4392 0.205857 0.940984 0.5723 0.573599Z" fill="#445D69"/>
</svg>
