<svg width="23" height="25" viewBox="0 0 23 25" fill="none" xmlns="http://www.w3.org/2000/svg">
<path fill-rule="evenodd" clip-rule="evenodd" d="M13.6539 0.19C13.206 -5.96046e-08 12.637 0 11.5003 0C10.3637 0 9.79593 -5.96046e-08 9.34682 0.19C9.05132 0.314682 8.78261 0.498477 8.55617 0.730808C8.32972 0.96314 8.15 1.23942 8.02736 1.54375C7.91357 1.8225 7.86999 2.14875 7.85183 2.6225C7.84319 2.96563 7.75023 3.30085 7.58168 3.59669C7.41312 3.89253 7.17451 4.13928 6.88825 4.31375C6.59621 4.48138 6.26791 4.57018 5.93379 4.57193C5.59966 4.57368 5.27051 4.48831 4.97684 4.32375C4.56768 4.10125 4.2711 3.97875 3.97816 3.93875C3.33729 3.8524 2.68927 4.03024 2.17448 4.43375C1.78953 4.73625 1.50506 5.24125 0.937326 6.25C0.368381 7.25875 0.0851185 7.7625 0.0209608 8.25625C-0.0637757 8.91375 0.11054 9.57875 0.50517 10.105C0.684327 10.345 0.937326 10.5463 1.32833 10.7987C1.90574 11.17 2.27616 11.8025 2.27616 12.5C2.27616 13.1975 1.90574 13.83 1.32954 14.2C0.937326 14.4537 0.684327 14.655 0.503959 14.895C0.309751 15.1553 0.167131 15.4525 0.0842538 15.7697C0.00137698 16.087 -0.0201307 16.4179 0.0209608 16.7438C0.0851185 17.2363 0.368381 17.7412 0.937326 18.75C1.50627 19.7588 1.78953 20.2625 2.17448 20.5662C2.68774 20.97 3.33658 21.1475 3.97816 21.0613C4.2711 21.0212 4.56768 20.8988 4.97684 20.6763C5.27066 20.5115 5.60004 20.426 5.9344 20.4277C6.26875 20.4295 6.59727 20.5184 6.88946 20.6862C7.47778 21.0362 7.82641 21.68 7.85183 22.3775C7.86999 22.8525 7.91357 23.1775 8.02736 23.4562C8.2743 24.0687 8.74883 24.5562 9.34682 24.81C9.79472 25 10.3637 25 11.5003 25C12.637 25 13.206 25 13.6539 24.81C13.9494 24.6853 14.2181 24.5015 14.4445 24.2692C14.671 24.0369 14.8507 23.7606 14.9733 23.4562C15.0871 23.1775 15.1307 22.8525 15.1489 22.3775C15.1731 21.68 15.5229 21.035 16.1124 20.6862C16.4045 20.5186 16.7328 20.4298 17.0669 20.4281C17.401 20.4263 17.7302 20.5117 18.0238 20.6763C18.433 20.8988 18.7296 21.0212 19.0225 21.0613C19.6641 21.1488 20.3129 20.97 20.8262 20.5662C21.2112 20.2638 21.4956 19.7588 22.0634 18.75C22.6323 17.7412 22.9156 17.2375 22.9797 16.7438C23.0206 16.4179 22.9989 16.0868 22.9159 15.7696C22.8328 15.4524 22.6899 15.1552 22.4955 14.895C22.3164 14.655 22.0634 14.4537 21.6724 14.2013C21.0949 13.83 20.7245 13.1975 20.7245 12.5C20.7245 11.8025 21.0949 11.17 21.6712 10.8C22.0634 10.5463 22.3164 10.345 22.4967 10.105C22.6909 9.84474 22.8336 9.54749 22.9164 9.23027C22.9993 8.91305 23.0208 8.58206 22.9797 8.25625C22.9156 7.76375 22.6323 7.25875 22.0634 6.25C21.4944 5.24125 21.2112 4.7375 20.8262 4.43375C20.3114 4.03024 19.6634 3.8524 19.0225 3.93875C18.7296 3.97875 18.433 4.10125 18.0238 4.32375C17.73 4.48854 17.4007 4.57402 17.0663 4.57227C16.7319 4.57052 16.4034 4.4816 16.1112 4.31375C15.8252 4.13913 15.5868 3.89232 15.4185 3.59648C15.2502 3.30065 15.1574 2.96551 15.1489 2.6225C15.1307 2.1475 15.0871 1.8225 14.9733 1.54375C14.8507 1.23942 14.671 0.96314 14.4445 0.730808C14.2181 0.498477 13.9494 0.314682 13.6539 0.19ZM11.5003 16.25C13.5219 16.25 15.1598 14.5712 15.1598 12.5C15.1598 10.4288 13.5207 8.75 11.5003 8.75C9.47998 8.75 7.84094 10.4288 7.84094 12.5C7.84094 14.5712 9.47998 16.25 11.5003 16.25Z" fill="#425965"/>
</svg>
